<svg width="24" height="24" viewBox="0 0 24 24" fill="none" xmlns="http://www.w3.org/2000/svg">
<path d="M4.03099 8.91694L19.508 4.58294C19.5935 4.55903 19.6838 4.5583 19.7697 4.58084C19.8555 4.60338 19.9338 4.64837 19.9965 4.71119C20.0593 4.77401 20.1041 4.85239 20.1265 4.93829C20.1489 5.02418 20.148 5.11449 20.124 5.19994L15.791 20.6759C15.7634 20.7755 15.7057 20.8641 15.6258 20.9295C15.5459 20.9949 15.4477 21.034 15.3447 21.0413C15.2416 21.0487 15.1388 21.0239 15.0505 20.9705C14.9621 20.9171 14.8924 20.8376 14.851 20.7429L11.603 13.3609C11.5528 13.2462 11.4615 13.1545 11.347 13.1039L3.96499 9.85594C3.87034 9.81464 3.7908 9.74505 3.73729 9.65672C3.68379 9.56839 3.65894 9.46566 3.66618 9.36264C3.67341 9.25963 3.71236 9.16137 3.77769 9.08139C3.84301 9.0014 3.9315 8.94461 4.03099 8.91694Z" stroke="white" stroke-width="1.5" stroke-linecap="round" stroke-linejoin="round"/>
</svg>
